<svg width="141" height="41" viewBox="0 0 141 41" fill="none" xmlns="http://www.w3.org/2000/svg">
<path d="M109.336 6.96014C106.017 3.97192 100.254 1.22306 90.2681 1.01195C67.8144 0.537704 73.839 14.3162 67.8144 17.6434C61.7897 20.9691 60.1465 15.7419 54.1236 19.0691C48.0989 22.3933 50.8371 29.0462 45.9073 29.9976C40.9793 30.9476 34.4063 25.7205 28.3834 29.0462C22.3587 32.3719 22.3587 35.2233 19.6206 35.2233C16.8824 35.2233 11.4061 33.3218 8.11958 35.2233C4.8348 37.1248 1 39.5005 1 39.5005H59.8038" fill="#F5F5F5"/>
<path d="M109.336 6.96013C106.017 3.97192 100.254 1.22306 90.2681 1.01195C67.8144 0.537704 73.839 14.3162 67.8144 17.6434C61.7897 20.9691 60.1465 15.7419 54.1235 19.0691C48.0989 22.3933 50.8371 29.0462 45.9073 29.9976C40.9793 30.9476 34.4063 25.7205 28.3834 29.0462C22.3587 32.3719 22.3587 35.2233 19.6206 35.2233C16.8824 35.2233 11.4061 33.3218 8.11958 35.2233C4.8348 37.1248 1 39.5005 1 39.5005H59.8038" stroke="black" stroke-width="2" stroke-miterlimit="10" stroke-linecap="round" stroke-linejoin="round"/>
<path d="M67.3345 39.5005H139.557C139.557 39.5005 141.2 35.2248 135.175 32.3734C129.152 29.5219 126.414 31.8976 124.223 29.5219C122.273 27.4064 128.573 22.2759 118.374 16.8168" fill="#F5F5F5"/>
<path d="M67.3345 39.5005H139.557C139.557 39.5005 141.2 35.2248 135.175 32.3734C129.152 29.5219 126.414 31.8976 124.223 29.5219C122.273 27.4064 128.573 22.2759 118.374 16.8168" stroke="black" stroke-width="2" stroke-miterlimit="10" stroke-linecap="round" stroke-linejoin="round"/>
</svg>
