<svg width="54" height="41" viewBox="0 0 54 41" fill="none" xmlns="http://www.w3.org/2000/svg">
<path d="M22.3359 6.96014C19.0168 3.97192 13.2543 1.22306 3.26806 1.01195C-19.1856 0.537704 -13.161 14.3162 -19.1856 17.6434C-25.2103 20.9691 -26.8535 15.7419 -32.8764 19.0691C-38.9011 22.3933 -36.1629 29.0462 -41.0927 29.9976C-46.0207 30.9476 -52.5937 25.7205 -58.6166 29.0462C-64.6413 32.3719 -64.6413 35.2233 -67.3794 35.2233C-70.1176 35.2233 -75.5939 33.3218 -78.8804 35.2233C-82.1652 37.1248 -86 39.5005 -86 39.5005H-27.1962" fill="#F5F5F5"/>
<path d="M22.3359 6.96013C19.0168 3.97192 13.2543 1.22306 3.26806 1.01195C-19.1856 0.537704 -13.161 14.3162 -19.1856 17.6434C-25.2103 20.9691 -26.8535 15.7419 -32.8765 19.0691C-38.9011 22.3933 -36.1629 29.0462 -41.0927 29.9976C-46.0207 30.9476 -52.5937 25.7205 -58.6166 29.0462C-64.6413 32.3719 -64.6413 35.2233 -67.3794 35.2233C-70.1176 35.2233 -75.5939 33.3218 -78.8804 35.2233C-82.1652 37.1248 -86 39.5005 -86 39.5005H-27.1962" stroke="black" stroke-width="2" stroke-miterlimit="10" stroke-linecap="round" stroke-linejoin="round"/>
<path d="M-19.6655 39.5005H52.5566C52.5566 39.5005 54.1999 35.2248 48.1752 32.3734C42.1523 29.5219 39.4141 31.8976 37.2226 29.5219C35.2726 27.4064 41.5731 22.2759 31.3744 16.8168" fill="#F5F5F5"/>
<path d="M-19.6655 39.5005H52.5566C52.5566 39.5005 54.1999 35.2248 48.1752 32.3734C42.1523 29.5219 39.4141 31.8976 37.2226 29.5219C35.2726 27.4064 41.5731 22.2759 31.3744 16.8168" stroke="black" stroke-width="2" stroke-miterlimit="10" stroke-linecap="round" stroke-linejoin="round"/>
</svg>
