<svg width="337" height="95" viewBox="0 0 337 95" fill="none" xmlns="http://www.w3.org/2000/svg">
<path d="M218.776 93.811H335.011C335.011 93.811 338.971 83.5023 324.448 76.6277C309.927 69.7575 303.327 75.4837 298.045 69.7575C292.764 64.0289 312.566 49.1379 272.959 34.2469C272.959 34.2469 270.32 2.17483 216.191 1.02868C192.832 0.536506 182.259 6.44033 176.62 13.96" fill="#F5F5F5"/>
<path d="M218.776 93.811H335.011C335.011 93.811 338.971 83.5023 324.448 76.6277C309.927 69.7575 303.327 75.4837 298.045 69.7575C292.764 64.0289 312.566 49.1379 272.959 34.2469C272.959 34.2469 270.32 2.17483 216.191 1.02868C192.832 0.536506 182.259 6.44033 176.62 13.96" stroke="black" stroke-width="2" stroke-miterlimit="10" stroke-linecap="round" stroke-linejoin="round"/>
<path d="M169.573 29.7789C167.918 34.6624 166.128 38.8784 162.064 41.1213C147.543 49.1399 143.582 36.5389 129.059 44.5575C114.535 52.5761 121.138 68.611 109.257 70.9033C97.3751 73.1934 81.5332 60.5947 67.0097 68.611C52.4862 76.6296 52.4862 83.502 45.8863 83.502C39.2864 83.502 26.0839 78.9219 18.1629 83.502C10.242 88.0844 1 93.8129 1 93.8129H149.449" fill="#F5F5F5"/>
<path d="M169.573 29.7789C167.918 34.6624 166.128 38.8784 162.064 41.1213C147.543 49.1399 143.582 36.5389 129.059 44.5575C114.535 52.5761 121.138 68.611 109.257 70.9033C97.3751 73.1934 81.5332 60.5947 67.0097 68.611C52.4862 76.6296 52.4862 83.502 45.8863 83.502C39.2864 83.502 26.0839 78.9219 18.1629 83.502C10.242 88.0844 1 93.8129 1 93.8129H149.449" stroke="black" stroke-width="2" stroke-miterlimit="10" stroke-linecap="round" stroke-linejoin="round"/>
</svg>