<svg width="32" height="32" viewBox="0 0 32 32" fill="none" xmlns="http://www.w3.org/2000/svg">
<path fill-rule="evenodd" clip-rule="evenodd" d="M31.9991 16.1701C31.9997 16.1135 32 16.0568 32 16C32 7.16344 24.8366 0 16 0C7.72162 0 0.911654 6.28705 0.0843626 14.3469L8.93323 18.673C9.36321 18.0264 10.0984 17.6002 10.9332 17.6002C11.6445 17.6002 12.2835 17.9096 12.723 18.4012L19.7348 12.6164C19.7339 12.5888 19.7334 12.5612 19.7334 12.5334C19.7334 11.2079 20.8079 10.1334 22.1334 10.1334C23.3929 10.1334 24.4258 11.1036 24.5255 12.3375L31.9991 16.1701ZM13.3105 19.6684L20.2133 13.9735C20.6512 14.5564 21.3483 14.9334 22.1334 14.9334C23.0338 14.9334 23.8183 14.4376 24.229 13.7041L31.9163 17.6463C31.0922 25.7094 24.2807 32 16 32C7.16344 32 0 24.8366 0 16C0 15.9367 0.000367485 15.8735 0.00110044 15.8104L8.53327 19.9817C8.53323 19.9878 8.5332 19.994 8.5332 20.0002C8.5332 21.3257 9.60772 22.4002 10.9332 22.4002C12.2587 22.4002 13.3332 21.3257 13.3332 20.0002C13.3332 19.8876 13.3255 19.7768 13.3105 19.6684Z" fill="#605BFF"/>
</svg>
