<svg width="148" height="47" viewBox="0 0 148 47" fill="none" xmlns="http://www.w3.org/2000/svg">
<g clip-path="url(#clip0_446_6376)">
<path d="M81.1119 23.272H77.0199L76.0056 21.6986H68.1272L67.1245 23.272H63.0383L69.7928 12.7944H74.3573L81.1119 23.272ZM69.8505 19.0072H74.2824L72.0693 15.5493L69.8505 19.0072Z" fill="#0D0D0D"/>
<path d="M95.7045 20.425V23.272H81.7056V12.7887H85.3018V20.425H95.7045Z" fill="#0D0D0D"/>
<path d="M96.9031 12.777H106.902C107.646 12.7625 108.388 12.8458 109.11 13.0249C109.661 13.1577 110.176 13.4138 110.614 13.7741C111.005 14.1049 111.303 14.532 111.478 15.0132C111.674 15.5681 111.768 16.1539 111.755 16.7422C111.76 17.2768 111.668 17.8078 111.484 18.3098C111.308 18.7813 111.015 19.2 110.631 19.5258C110.192 19.8921 109.682 20.163 109.133 20.3211C108.417 20.5249 107.675 20.6201 106.931 20.6035H100.494V23.3007H96.9031V12.777ZM100.494 17.7334H106.695C107.093 17.7691 107.492 17.6912 107.847 17.5087C107.965 17.4123 108.057 17.288 108.114 17.1471C108.172 17.0061 108.193 16.853 108.176 16.7018C108.195 16.5453 108.175 16.3865 108.118 16.2396C108.061 16.0927 107.968 15.9624 107.847 15.8604C107.492 15.6779 107.093 15.5999 106.695 15.6356H100.494V17.7334Z" fill="#0D0D0D"/>
<path d="M125.737 19.3933H116.694V23.272H113.098V12.7887H116.694V16.5463H125.737V12.7887H129.327V23.272H125.737V19.3933Z" fill="#0D0D0D"/>
<path d="M148 23.272H143.908L142.894 21.6986H135.027L134.018 23.272H129.932L136.681 12.7944H141.245L148 23.272ZM136.756 19.0072H141.188L138.975 15.5493L136.756 19.0072Z" fill="#0D0D0D"/>
<path d="M68.8477 29.3694C68.2457 29.3718 67.6467 29.4551 67.0669 29.6173C66.4922 29.7758 65.9552 30.0482 65.4878 30.4184C64.9988 30.7998 64.6044 31.2889 64.3351 31.8476C64.0537 32.5244 63.9089 33.25 63.9089 33.9829C63.9089 34.7158 64.0537 35.4415 64.3351 36.1182C64.6028 36.6747 64.9977 37.1603 65.4878 37.536C65.9555 37.9043 66.4925 38.1748 67.0669 38.3313C67.6461 38.4963 68.2455 38.5797 68.8477 38.5791H73.6255C74.0666 38.5798 74.5066 38.5373 74.9395 38.4523C75.3706 38.3682 75.789 38.2287 76.1843 38.0374C76.5771 37.8474 76.9386 37.5987 77.2563 37.2997C77.5859 36.9826 77.857 36.61 78.0574 36.1989H79.0256C78.8519 36.653 78.611 37.0784 78.311 37.461C77.9911 37.8612 77.6004 38.1992 77.1583 38.4581C76.6707 38.7566 76.14 38.9782 75.5849 39.1151C74.9203 39.2843 74.2363 39.3657 73.5505 39.3571H68.8477C67.9354 39.3801 67.0267 39.2335 66.1678 38.9249C65.4887 38.6754 64.8714 38.2823 64.3582 37.7723C63.8893 37.2814 63.5384 36.6901 63.3323 36.0433C63.1165 35.3868 63.0075 34.6999 63.0095 34.0089C63.0085 33.3141 63.1174 32.6236 63.3323 31.9629C63.5411 31.3173 63.8917 30.7266 64.3582 30.2339C64.8681 29.7102 65.4855 29.3032 66.1678 29.0409C67.024 28.7205 67.9338 28.5679 68.8477 28.5914H73.5505C74.2186 28.582 74.885 28.6595 75.5331 28.8219C76.0714 28.9599 76.5876 29.1733 77.0661 29.4559C77.8964 29.9609 78.5459 30.7152 78.9219 31.6113H77.9709C77.7636 31.2285 77.4904 30.8852 77.1641 30.597C76.8488 30.3182 76.4957 30.0854 76.1152 29.9054C75.7308 29.7258 75.3265 29.5923 74.9107 29.5078C74.4891 29.4256 74.0607 29.3832 73.6312 29.381L68.8477 29.3694Z" fill="#0D0D0D"/>
<path d="M85.7627 39.3571C84.8504 39.3795 83.9418 39.233 83.0828 38.9249C82.4037 38.6754 81.7864 38.2823 81.2732 37.7723C80.8063 37.2798 80.4558 36.689 80.2473 36.0433C80.0315 35.3868 79.9226 34.6999 79.9246 34.0089C79.9235 33.3141 80.0324 32.6236 80.2473 31.9629C80.4579 31.3181 80.8082 30.7278 81.2732 30.2339C81.7831 29.7102 82.4005 29.3032 83.0828 29.0409C83.9391 28.7209 84.8489 28.5683 85.7627 28.5914H91.0937C92.0076 28.5679 92.9174 28.7205 93.7736 29.0409C94.4559 29.3032 95.0733 29.7102 95.5833 30.2339C96.0498 30.7266 96.4003 31.3173 96.6092 31.9629C96.8269 32.6229 96.9359 33.3139 96.9319 34.0089C96.9368 34.7001 96.8277 35.3875 96.6092 36.0433C96.403 36.6901 96.0522 37.2814 95.5833 37.7723C95.0701 38.2823 94.4528 38.6754 93.7736 38.9249C92.9148 39.2335 92.0061 39.3801 91.0937 39.3571H85.7627ZM85.7627 29.3694C85.1607 29.3718 84.5617 29.4551 83.9819 29.6173C83.4076 29.777 82.8708 30.0493 82.4028 30.4184C81.9259 30.8046 81.5418 31.2931 81.2789 31.8476C80.9975 32.5244 80.8527 33.25 80.8527 33.9829C80.8527 34.7158 80.9975 35.4415 81.2789 36.1182C81.5403 36.6704 81.9248 37.1554 82.4028 37.536C82.8711 37.9033 83.4079 38.1736 83.9819 38.3313C84.5611 38.4963 85.1605 38.5797 85.7627 38.5791H91.1514C91.7536 38.5797 92.353 38.4963 92.9322 38.3313C93.5071 38.176 94.0443 37.9054 94.5113 37.536C95.0014 37.1603 95.3963 36.6747 95.664 36.1182C95.9454 35.4415 96.0902 34.7158 96.0902 33.9829C96.0902 33.25 95.9454 32.5244 95.664 31.8476C95.3947 31.2889 95.0003 30.7998 94.5113 30.4184C94.0446 30.0471 93.5074 29.7746 92.9322 29.6173C92.3524 29.4551 91.7534 29.3718 91.1514 29.3694H85.7627Z" fill="#0D0D0D"/>
<path d="M111.841 39.2074H110.781L109.167 36.7235H99.779L98.1422 39.2074H97.1682L103.905 28.7587H105.058L111.841 39.2074ZM100.269 35.957H108.683L104.522 29.4906L100.269 35.957Z" fill="#0D0D0D"/>
<path d="M117.876 29.3695C117.273 29.3718 116.674 29.4552 116.095 29.6173C115.52 29.777 114.984 30.0493 114.516 30.4184C114.04 30.8062 113.656 31.2942 113.392 31.8477C113.11 32.5244 112.965 33.2501 112.965 33.983C112.965 34.7159 113.11 35.4415 113.392 36.1182C113.655 36.6692 114.039 37.1537 114.516 37.536C114.984 37.9033 115.521 38.1737 116.095 38.3313C116.674 38.4963 117.273 38.5797 117.876 38.5791H122.653C123.094 38.5798 123.534 38.5373 123.967 38.4524C124.399 38.37 124.817 38.2305 125.212 38.0374C125.607 37.8503 125.968 37.6012 126.284 37.2997C126.614 36.9826 126.885 36.61 127.085 36.1989H128.059C127.883 36.6532 127.641 37.0787 127.339 37.4611C127.027 37.8586 126.647 38.1964 126.215 38.4581C125.732 38.7616 125.205 38.989 124.653 39.1324C123.989 39.302 123.304 39.3834 122.619 39.3745H117.916C117.004 39.3963 116.095 39.2498 115.236 38.9422C114.557 38.6928 113.939 38.2996 113.426 37.7896C112.959 37.2971 112.609 36.7063 112.4 36.0606C112.185 35.4041 112.076 34.7172 112.078 34.0262C112.077 33.3314 112.186 32.6409 112.4 31.9802C112.611 31.3355 112.961 30.7451 113.426 30.2513C113.936 29.7276 114.554 29.3206 115.236 29.0583C116.092 28.7388 117.002 28.5862 117.916 28.6087H122.619C123.287 28.5994 123.953 28.6769 124.601 28.8393C125.141 28.9772 125.659 29.1906 126.14 29.4732C126.564 29.7292 126.942 30.0546 127.258 30.4357C127.563 30.7934 127.812 31.1957 127.996 31.6287H127.005C126.797 31.2459 126.524 30.9025 126.198 30.6143C125.882 30.3355 125.529 30.1027 125.149 29.9228C124.765 29.7422 124.36 29.6087 123.944 29.5251C123.523 29.443 123.094 29.4005 122.665 29.3983L117.876 29.3695Z" fill="#0D0D0D"/>
<path d="M144.882 34.3431H130.451V39.2073H129.552V28.7239H130.451V33.5477H144.882V28.7239H145.781V39.2073H144.882V34.3431Z" fill="#0D0D0D"/>
</g>
<path fill-rule="evenodd" clip-rule="evenodd" d="M26.7587 0L0 46.1578H7.19252L26.5397 12.1547L32.1646 22.079H39.19L26.7587 0ZM42.7574 28.2114L46.1058 34.1764H27.9862L24.5283 40.418H49.7309L53.0736 46.1582H14.0507L24.4764 28.2114H42.7574Z" fill="#C3E54A"/>
<defs>
<clipPath id="clip0_446_6376">
<rect width="148" height="46.1636" fill="white"/>
</clipPath>
</defs>
</svg>
