<svg width="109" height="34" viewBox="0 0 109 34" fill="none" xmlns="http://www.w3.org/2000/svg">
<g clip-path="url(#clip0_334_4811)">
<path d="M59.7377 17.1396H56.724L55.977 15.9808H50.1747L49.4361 17.1396H46.4268L51.4014 9.42297H54.763L59.7377 17.1396ZM51.4438 13.9986H54.7079L53.078 11.4519L51.4438 13.9986Z" fill="white"/>
<path d="M70.4848 15.0425V17.1393H60.1748V9.41846H62.8234V15.0425H70.4848Z" fill="white"/>
<path d="M71.3672 9.40989H78.7315C79.279 9.39917 79.8256 9.46053 80.3572 9.5924C80.7634 9.6902 81.1422 9.87887 81.465 10.1442C81.753 10.3878 81.9724 10.7024 82.1017 11.0568C82.246 11.4654 82.315 11.8969 82.3054 12.3301C82.3091 12.7239 82.2415 13.115 82.1059 13.4847C81.9765 13.832 81.7602 14.1403 81.4777 14.3803C81.1545 14.65 80.7787 14.8495 80.3741 14.966C79.8471 15.1161 79.3005 15.1862 78.7527 15.174H74.0116V17.1604H71.3672V9.40989ZM74.0116 13.0602H78.5787C78.8716 13.0865 79.166 13.0291 79.4276 12.8947C79.5144 12.8237 79.582 12.7322 79.6242 12.6284C79.6665 12.5245 79.6821 12.4118 79.6695 12.3004C79.6837 12.1852 79.6691 12.0682 79.6269 11.96C79.5846 11.8518 79.5162 11.7559 79.4276 11.6807C79.166 11.5463 78.8716 11.4889 78.5787 11.5152H74.0116V13.0602Z" fill="white"/>
<path d="M92.6032 14.2832H85.9435V17.1398H83.2949V9.41895H85.9435V12.1864H92.6032V9.41895H95.2476V17.1398H92.6032V14.2832Z" fill="white"/>
<path d="M109 17.1395H105.986L105.239 15.9807H99.4456L98.7028 17.1395H95.6934L100.664 9.42291H104.025L109 17.1395ZM100.719 13.9985H103.983L102.353 11.4518L100.719 13.9985Z" fill="white"/>
<path d="M50.706 21.6304C50.2626 21.6321 49.8215 21.6935 49.3944 21.8129C48.9712 21.9297 48.5757 22.1303 48.2314 22.4029C47.8713 22.6839 47.5808 23.0441 47.3825 23.4556C47.1753 23.954 47.0686 24.4884 47.0686 25.0282C47.0686 25.5679 47.1753 26.1024 47.3825 26.6008C47.5797 27.0106 47.8705 27.3683 48.2314 27.6449C48.5759 27.9162 48.9714 28.1154 49.3944 28.2307C49.821 28.3522 50.2625 28.4136 50.706 28.4132H54.2247C54.5496 28.4137 54.8737 28.3824 55.1925 28.3198C55.51 28.2579 55.8181 28.1551 56.1093 28.0142C56.3986 27.8743 56.6648 27.6911 56.8988 27.4709C57.1415 27.2374 57.3412 26.963 57.4888 26.6602H58.2019C58.0739 26.9946 57.8965 27.308 57.6756 27.5898C57.44 27.8845 57.1522 28.1334 56.8267 28.3241C56.4675 28.5439 56.0767 28.7071 55.6679 28.8079C55.1784 28.9326 54.6746 28.9925 54.1696 28.9862H50.706C50.0341 29.0031 49.3648 28.8952 48.7323 28.6679C48.2321 28.4841 47.7775 28.1946 47.3995 27.819C47.0542 27.4574 46.7958 27.022 46.644 26.5456C46.485 26.0621 46.4048 25.5562 46.4063 25.0473C46.4055 24.5356 46.4857 24.027 46.644 23.5405C46.7978 23.065 47.0559 22.63 47.3995 22.2671C47.7751 21.8814 48.2298 21.5816 48.7323 21.3885C49.3629 21.1525 50.0329 21.0401 50.706 21.0574H54.1696C54.6616 21.0505 55.1524 21.1076 55.6297 21.2272C56.0262 21.3288 56.4063 21.486 56.7587 21.6941C57.3702 22.066 57.8486 22.6216 58.1255 23.2815H57.4251C57.2724 22.9996 57.0712 22.7467 56.8309 22.5345C56.5987 22.3292 56.3386 22.1577 56.0584 22.0252C55.7753 21.8928 55.4775 21.7945 55.1713 21.7323C54.8608 21.6718 54.5453 21.6405 54.229 21.6389L50.706 21.6304Z" fill="white"/>
<path d="M63.163 28.9862C62.4911 29.0027 61.822 28.8948 61.1893 28.6679C60.6891 28.4841 60.2345 28.1946 59.8565 27.819C59.5127 27.4563 59.2545 27.0212 59.101 26.5456C58.9421 26.0621 58.8618 25.5562 58.8633 25.0473C58.8625 24.5356 58.9427 24.027 59.101 23.5405C59.2561 23.0656 59.5141 22.6308 59.8565 22.2671C60.2321 21.8814 60.6868 21.5816 61.1893 21.3885C61.82 21.1528 62.49 21.0404 63.163 21.0574H67.0892C67.7623 21.0401 68.4324 21.1525 69.0629 21.3885C69.5654 21.5816 70.0201 21.8814 70.3957 22.2671C70.7393 22.63 70.9974 23.065 71.1513 23.5405C71.3116 24.0265 71.3919 24.5354 71.389 25.0473C71.3926 25.5564 71.3122 26.0626 71.1513 26.5456C70.9995 27.022 70.7411 27.4574 70.3957 27.819C70.0177 28.1946 69.5631 28.4841 69.0629 28.6679C68.4304 28.8952 67.7612 29.0031 67.0892 28.9862H63.163ZM63.163 21.6304C62.7196 21.6321 62.2785 21.6935 61.8515 21.8129C61.4285 21.9305 61.0332 22.1311 60.6885 22.4029C60.3372 22.6874 60.0543 23.0471 59.8608 23.4556C59.6535 23.954 59.5468 24.4884 59.5468 25.0282C59.5468 25.5679 59.6535 26.1024 59.8608 26.6008C60.0533 27.0075 60.3364 27.3647 60.6885 27.6449C61.0334 27.9154 61.4287 28.1146 61.8515 28.2307C62.278 28.3522 62.7195 28.4136 63.163 28.4132H67.1317C67.5752 28.4136 68.0167 28.3522 68.4432 28.2307C68.8666 28.1163 69.2623 27.917 69.6062 27.6449C69.9672 27.3683 70.258 27.0106 70.4552 26.6008C70.6624 26.1024 70.7691 25.5679 70.7691 25.0282C70.7691 24.4884 70.6624 23.954 70.4552 23.4556C70.2569 23.0441 69.9664 22.6839 69.6062 22.4029C69.2625 22.1295 68.8669 21.9288 68.4432 21.8129C68.0162 21.6935 67.5751 21.6321 67.1317 21.6304H63.163Z" fill="white"/>
<path d="M82.3691 28.8755H81.5881L80.3997 27.0461H73.4853L72.2798 28.8755H71.5625L76.5244 21.1802H77.3733L82.3691 28.8755ZM73.8461 26.4816H80.0431L76.9786 21.7192L73.8461 26.4816Z" fill="white"/>
<path d="M86.813 21.6302C86.3696 21.6319 85.9285 21.6933 85.5015 21.8128C85.0785 21.9304 84.6831 22.1309 84.3384 22.4027C83.9883 22.6883 83.7057 23.0478 83.5108 23.4554C83.3035 23.9538 83.1968 24.4882 83.1968 25.028C83.1968 25.5678 83.3035 26.1022 83.5108 26.6006C83.7048 27.0064 83.9877 27.3632 84.3384 27.6448C84.6834 27.9153 85.0788 28.1144 85.5015 28.2305C85.928 28.352 86.3695 28.4135 86.813 28.413H90.3318C90.6566 28.4135 90.9807 28.3822 91.2995 28.3196C91.6174 28.259 91.9257 28.1562 92.2163 28.014C92.5068 27.8762 92.7733 27.6928 93.0058 27.4707C93.2486 27.2372 93.4483 26.9628 93.5958 26.66H94.3131C94.1837 26.9946 94.0048 27.3079 93.7826 27.5896C93.5533 27.8823 93.2729 28.1311 92.9549 28.3239C92.5992 28.5474 92.2112 28.7149 91.8046 28.8205C91.3152 28.9454 90.8114 29.0054 90.3063 28.9988H86.8427C86.1709 29.0149 85.5017 28.907 84.869 28.6804C84.3688 28.4967 83.9142 28.2071 83.5362 27.8315C83.1924 27.4688 82.9342 27.0337 82.7807 26.5582C82.6218 26.0747 82.5415 25.5688 82.543 25.0598C82.5422 24.5482 82.6224 24.0396 82.7807 23.553C82.9358 23.0782 83.1938 22.6434 83.5362 22.2797C83.9118 21.894 84.3665 21.5942 84.869 21.401C85.4998 21.1658 86.1697 21.0534 86.8427 21.07H90.3063C90.7983 21.0631 91.2891 21.1201 91.7664 21.2397C92.1642 21.3413 92.5458 21.4985 92.8997 21.7066C93.2119 21.8952 93.4903 22.1348 93.7232 22.4155C93.948 22.6789 94.1312 22.9752 94.2665 23.2941H93.5364C93.3837 23.0122 93.1825 22.7593 92.9422 22.5471C92.7099 22.3417 92.4499 22.1703 92.1697 22.0377C91.8868 21.9048 91.589 21.8064 91.2826 21.7448C90.9721 21.6844 90.6566 21.6531 90.3402 21.6515L86.813 21.6302Z" fill="white"/>
<path d="M106.704 25.2932H96.0752V28.8756H95.4131V21.1548H96.0752V24.7075H106.704V21.1548H107.366V28.8756H106.704V25.2932Z" fill="white"/>
</g>
<path fill-rule="evenodd" clip-rule="evenodd" d="M19.7074 4L0 31.0719H5.2972L19.5461 11.1288L23.6888 16.9495H28.8629L19.7074 4ZM31.4897 20.5464L33.9558 24.0449H20.611L18.0642 27.7056H36.6257L39.0875 31.0723H10.3477L18.026 20.5464H31.4897Z" fill="white"/>
<defs>
<clipPath id="clip0_334_4811">
<rect width="109" height="33.9988" fill="white"/>
</clipPath>
</defs>
</svg>
