<svg width="28" height="28" viewBox="0 0 28 28" fill="none" xmlns="http://www.w3.org/2000/svg">
<circle cx="14" cy="11.375" r="3.5" stroke="#161616" stroke-width="1.5" stroke-linejoin="round"/>
<path d="M7 23.625L7.85883 19.2772C8.26372 17.2274 10.0615 15.75 12.1509 15.75H15.8491C17.9385 15.75 19.7363 17.2274 20.1412 19.2772L21 23.625" stroke="#161616" stroke-width="1.5" stroke-linecap="round" stroke-linejoin="round"/>
<circle cx="6.90234" cy="7" r="2.625" stroke="#161616" stroke-width="1.5" stroke-linejoin="round"/>
<path d="M2.625 15.75L2.97761 13.8459C3.33669 11.9069 5.02801 10.5 7 10.5V10.5C8.97199 10.5 10.6633 11.9069 11.0224 13.8459L11.375 15.75" stroke="#161616" stroke-width="1.5" stroke-linecap="round" stroke-linejoin="round"/>
<circle cx="20.9023" cy="7" r="2.625" stroke="#161616" stroke-width="1.5" stroke-linejoin="round"/>
<path d="M16.625 15.75L16.9776 13.8459C17.3367 11.9069 19.028 10.5 21 10.5V10.5C22.972 10.5 24.6633 11.9069 25.0224 13.8459L25.375 15.75" stroke="#161616" stroke-width="1.5" stroke-linecap="round" stroke-linejoin="round"/>
</svg>
